<?xml version="1.0" standalone="no"?>
<!DOCTYPE svg PUBLIC "-//W3C//DTD SVG 20010904//EN"
 "http://www.w3.org/TR/2001/REC-SVG-20010904/DTD/svg10.dtd">
<svg version="1.0" xmlns="http://www.w3.org/2000/svg"
 width="1251.000000pt" height="371.000000pt" viewBox="0 0 1251.000000 371.000000"
 preserveAspectRatio="xMidYMid meet">

<g transform="translate(0.000000,371.000000) scale(0.100000,-0.100000)"
fill="#000000" stroke="none">
<path d="M2190 3129 c-134 -81 -446 -443 -579 -671 -40 -69 -50 -78 -104 -104
-88 -42 -152 -119 -182 -221 -7 -24 -32 -75 -55 -113 -61 -102 -80 -158 -80
-244 0 -81 -41 -385 -65 -475 -44 -169 -89 -265 -198 -417 -64 -90 -107 -157
-107 -167 0 -2 11 -7 25 -9 29 -6 51 21 176 221 77 123 79 128 198 487 120
361 148 428 262 629 28 50 69 138 90 198 21 59 48 127 60 150 35 69 209 315
264 373 l51 54 75 0 c41 0 99 6 129 14 30 8 56 13 57 12 1 -1 -33 -53 -77
-116 -131 -191 -251 -381 -283 -450 -17 -36 -61 -114 -99 -173 -38 -60 -76
-124 -84 -143 -13 -32 -13 -34 4 -34 25 0 51 30 103 120 46 79 134 193 191
247 40 38 102 66 208 93 85 22 168 25 269 10 77 -11 99 -28 85 -66 -17 -51
-53 -66 -166 -73 -126 -8 -142 -17 -228 -131 -33 -43 -107 -119 -165 -170
-103 -90 -131 -121 -118 -134 12 -12 23 -6 75 42 29 26 104 87 166 136 61 50
112 93 112 98 0 13 -18 9 -23 -4 -3 -8 -6 -6 -6 5 -1 9 21 40 47 67 l48 50 95
0 c124 0 173 22 208 94 22 45 23 51 10 75 -27 47 -60 56 -219 56 -136 0 -152
-2 -255 -34 -60 -18 -125 -42 -144 -53 l-34 -19 16 23 c9 13 34 52 56 88 21
36 59 92 83 125 119 162 221 332 243 403 4 13 7 44 7 70 0 40 -5 51 -31 74
-37 33 -64 35 -111 7z m78 -41 c18 -18 14 -71 -9 -134 -18 -46 -27 -58 -57
-71 -34 -14 -220 -38 -229 -30 -7 8 179 189 225 218 52 33 54 33 70 17z m-757
-872 c-22 -58 -62 -143 -89 -188 -77 -127 -119 -215 -162 -339 -22 -63 -38
-98 -35 -79 3 19 9 97 13 172 8 134 9 137 44 190 49 74 75 127 89 181 13 52
62 114 128 163 33 23 47 29 49 19 2 -7 -15 -61 -37 -119z"/>
<path d="M6990 2743 c-30 -14 -91 -37 -135 -52 -98 -32 -110 -54 -40 -72 27
-7 54 -22 65 -37 19 -24 20 -42 20 -606 0 -649 4 -612 -72 -636 -44 -14 -58
-26 -58 -47 0 -10 47 -13 204 -13 114 0 207 4 211 9 7 12 -22 41 -41 41 -9 0
-29 13 -45 30 l-30 29 2 688 c1 570 -1 688 -13 690 -7 1 -38 -10 -68 -24z"/>
<path d="M7945 2650 c-191 -31 -363 -134 -471 -285 -96 -135 -134 -263 -134
-449 0 -206 51 -340 179 -467 135 -135 288 -189 530 -189 161 0 312 31 423 86
77 39 78 43 78 255 0 172 2 188 20 212 11 14 33 28 49 32 30 6 48 32 33 47 -5
5 -109 7 -233 6 -215 -3 -224 -4 -224 -23 0 -15 12 -23 53 -35 104 -30 118
-66 110 -282 -5 -135 -16 -162 -77 -193 -128 -64 -258 -57 -420 21 -142 70
-250 218 -287 394 -20 94 -14 316 10 404 45 163 150 297 284 364 74 36 78 37
191 37 107 0 121 -2 179 -29 85 -39 158 -119 199 -216 17 -41 35 -76 41 -78 5
-1 17 4 26 13 13 13 16 37 16 113 0 150 -5 168 -55 197 -69 41 -185 65 -330
70 -71 2 -157 0 -190 -5z"/>
<path d="M3824 2625 c-9 -22 3 -33 46 -40 51 -9 102 -43 111 -75 4 -14 7 -267
8 -562 l1 -537 -22 -26 c-13 -14 -50 -36 -83 -48 -35 -14 -60 -29 -60 -38 0
-12 33 -14 205 -14 182 0 205 2 208 16 2 12 -14 23 -60 41 -105 40 -99 2 -96
591 l3 505 91 -121 c50 -67 156 -210 236 -317 369 -499 526 -706 541 -719 10
-8 27 -11 42 -7 l25 6 0 598 c0 382 4 610 10 634 12 42 33 57 105 73 39 9 51
16 53 33 l3 22 -216 0 -216 0 3 -22 c2 -17 14 -25 48 -33 63 -16 88 -31 105
-65 13 -25 15 -91 13 -466 l-3 -436 -383 511 -383 511 -165 0 c-135 0 -166 -3
-170 -15z"/>
<path d="M6341 2607 c-45 -26 -65 -93 -41 -138 13 -24 61 -49 95 -49 87 0 137
102 82 165 -27 32 -98 43 -136 22z"/>
<path d="M5515 2166 c-105 -33 -188 -105 -201 -173 -12 -63 33 -123 92 -123
16 0 39 13 61 35 l36 36 -7 68 c-7 66 -6 70 20 90 55 44 143 39 199 -10 45
-40 65 -107 65 -220 l0 -88 -32 -6 c-18 -3 -63 -9 -99 -15 -195 -29 -325 -121
-349 -248 -23 -123 45 -219 172 -242 92 -17 184 14 273 91 l34 30 14 -33 c24
-55 60 -81 121 -86 86 -7 176 34 176 81 0 19 -5 22 -45 22 -35 0 -50 6 -72 28
l-28 27 -5 288 c-5 277 -6 289 -29 336 -26 52 -85 98 -151 116 -49 14 -197 11
-245 -4z m265 -563 c0 -138 -12 -168 -82 -204 -82 -42 -172 -24 -205 42 -17
32 -16 114 1 147 40 76 137 129 239 131 l47 1 0 -117z"/>
<path d="M6370 2134 c-69 -25 -131 -47 -137 -49 -29 -10 -10 -34 39 -51 34
-12 57 -28 65 -44 10 -19 13 -94 11 -314 l-3 -288 -35 -29 c-19 -16 -42 -29
-52 -29 -23 0 -44 -38 -26 -45 8 -3 101 -4 208 -3 182 3 195 4 195 21 0 13
-13 23 -39 32 -22 8 -49 23 -60 35 -21 20 -21 28 -21 415 0 264 -3 395 -10
395 -5 -1 -66 -21 -135 -46z"/>
<path d="M9067 2174 c-3 -3 -57 -26 -119 -49 -89 -34 -114 -48 -116 -64 -3
-16 2 -21 18 -21 29 0 77 -26 90 -49 13 -25 14 -585 0 -610 -5 -10 -32 -28
-60 -40 -36 -16 -50 -27 -50 -41 0 -20 6 -20 202 -18 184 3 203 5 206 21 2 10
-4 20 -15 23 -103 33 -103 34 -103 327 0 269 7 304 71 362 56 50 91 48 151
-10 52 -50 81 -56 128 -28 68 40 67 140 -2 184 -27 16 -45 19 -93 16 -79 -6
-117 -26 -192 -104 l-63 -65 0 86 c0 83 -1 86 -23 86 -13 0 -26 -3 -30 -6z"/>
<path d="M9815 2169 c-50 -14 -137 -72 -169 -112 -25 -32 -31 -48 -31 -89 0
-42 4 -53 28 -74 33 -28 68 -31 108 -7 38 23 50 56 47 132 -3 58 -1 65 23 83
38 28 100 34 154 13 35 -13 51 -27 73 -63 24 -42 27 -58 31 -159 2 -62 -1
-113 -5 -113 -5 0 -50 -7 -101 -15 -242 -39 -373 -143 -373 -295 0 -123 88
-202 226 -203 71 -1 152 33 215 90 l37 34 19 -38 c41 -84 144 -108 243 -58 40
20 50 30 50 50 0 22 -4 25 -35 25 -51 0 -91 24 -104 61 -7 20 -11 124 -11 279
0 197 -3 257 -16 301 -22 73 -80 131 -153 153 -59 17 -205 20 -256 5z m265
-566 c0 -101 -3 -123 -20 -151 -21 -35 -106 -82 -148 -82 -32 0 -84 23 -105
48 -22 24 -32 86 -23 137 16 85 132 162 249 164 l47 1 0 -117z"/>
<path d="M10777 2156 c-84 -35 -131 -69 -178 -128 -80 -100 -116 -222 -106
-351 8 -99 30 -165 80 -239 78 -116 191 -172 347 -172 70 0 94 4 140 26 71 33
115 67 149 115 51 69 45 119 -7 70 -74 -69 -202 -95 -302 -62 -73 24 -150 100
-181 180 -21 53 -24 77 -24 195 0 128 2 138 29 198 34 72 79 117 136 132 83
22 180 -33 201 -116 15 -58 40 -79 96 -79 60 0 87 31 80 89 -8 57 -34 87 -112
126 -65 33 -76 35 -180 38 -98 2 -116 0 -168 -22z"/>
<path d="M11641 2157 c-34 -13 -78 -43 -116 -79 -98 -91 -145 -208 -145 -356
1 -270 179 -462 430 -462 97 0 240 78 291 159 48 75 34 108 -22 52 -53 -53
-114 -76 -204 -76 -98 0 -140 20 -211 98 -57 62 -83 125 -91 218 l-6 66 269 7
c148 4 279 10 292 13 18 4 22 12 22 43 0 51 -33 156 -65 205 -31 47 -93 95
-153 118 -64 25 -221 22 -291 -6z m209 -52 c60 -31 94 -93 106 -193 l7 -62
-197 0 c-225 0 -210 -9 -176 103 43 140 155 205 260 152z"/>
<path d="M2265 2091 c-7 -13 34 -51 56 -51 10 0 19 5 21 11 3 8 19 4 48 -11
56 -28 90 -58 90 -81 0 -21 -28 -29 -113 -29 -39 0 -79 -6 -95 -14 -32 -17
-82 -69 -145 -151 -25 -33 -77 -91 -116 -130 -39 -38 -71 -75 -71 -82 0 -25
30 -12 91 40 140 119 166 135 225 143 83 10 181 0 205 -22 23 -20 22 -63 -1
-74 -8 -5 -46 -23 -83 -41 -82 -39 -128 -87 -233 -246 -123 -185 -371 -467
-535 -609 -107 -93 -128 -119 -110 -137 19 -19 58 12 226 178 199 197 328 347
448 525 134 198 188 250 290 275 48 12 88 96 65 138 -19 36 -86 57 -185 57
-50 0 -104 -5 -119 -10 -15 -6 -28 -9 -30 -8 -5 5 63 103 82 119 11 9 43 14
83 15 179 3 170 2 177 29 8 34 -24 95 -64 122 -60 40 -192 68 -207 44z"/>
<path d="M1867 1789 c-4 -16 -3 -18 9 -8 16 13 19 29 5 29 -5 0 -11 -9 -14
-21z"/>
</g>
</svg>
